<?xml version="1.0" standalone="no"?>
<!DOCTYPE svg PUBLIC "-//W3C//DTD SVG 20010904//EN"
 "http://www.w3.org/TR/2001/REC-SVG-20010904/DTD/svg10.dtd">
<svg version="1.0" xmlns="http://www.w3.org/2000/svg"
 width="120.000000pt" height="120.000000pt" viewBox="0 0 120.000000 120.000000"
 preserveAspectRatio="xMidYMid meet">
<metadata>
Created by potrace 1.11, written by Peter Selinger 2001-2013
</metadata>
<g transform="translate(0.000000,120.000000) scale(0.100000,-0.100000)"
fill="#000000" stroke="none">
<path d="M45 1055 c-34 -33 -33 -77 1 -104 31 -25 86 -27 104 -6 18 22 4 31
-16 11 -23 -24 -56 -16 -72 16 -27 56 31 127 68 83 7 -8 16 -12 22 -9 18 11
-15 34 -49 34 -23 0 -42 -8 -58 -25z"/>
<path d="M317 1050 c-17 -42 -24 -62 -26 -75 -2 -5 -10 -18 -18 -27 -15 -17
-14 -18 13 -17 16 0 24 3 18 5 -21 9 -3 44 21 44 24 0 42 -35 21 -44 -6 -2 7
-5 29 -5 22 0 35 3 28 7 -6 4 -21 32 -32 62 -33 86 -38 90 -54 50z m23 -52 c0
-5 -7 -8 -15 -8 -17 0 -18 2 -9 25 5 13 8 14 15 3 5 -7 9 -16 9 -20z"/>
<path d="M528 1067 c13 -16 12 -107 -1 -124 -7 -10 0 -13 29 -12 22 0 33 3 27
6 -15 5 -18 63 -4 63 5 0 16 -16 25 -35 13 -27 23 -35 44 -35 15 0 22 4 17 8
-6 4 -18 20 -28 35 -16 24 -16 29 -3 43 15 15 11 43 -8 56 -6 4 -33 8 -60 8
-39 0 -46 -3 -38 -13z m71 -6 c17 -11 5 -51 -15 -51 -9 0 -14 11 -14 30 0 31
6 36 29 21z"/>
<path d="M788 1072 c18 -12 19 -122 1 -133 -9 -6 2 -8 31 -8 25 1 38 3 28 6
-23 6 -23 119 1 133 12 7 4 9 -29 10 -26 0 -40 -4 -32 -8z"/>
<path d="M1005 1072 c13 -8 14 -111 2 -129 -10 -16 75 -18 104 -3 23 13 25 56
3 68 -11 6 -13 11 -5 16 16 11 13 43 -5 50 -22 9 -111 7 -99 -2z m80 -27 c0
-11 -8 -21 -17 -23 -14 -3 -18 3 -18 23 0 20 4 26 18 23 9 -2 17 -12 17 -23z
m3 -47 c17 -17 15 -45 -4 -52 -29 -11 -34 -6 -34 29 0 36 15 46 38 23z"/>
<path d="M38 658 c7 -7 12 -38 12 -69 0 -46 -3 -58 -17 -62 -10 -3 15 -4 56
-4 62 2 75 5 77 20 3 21 -3 22 -22 2 -9 -8 -26 -15 -40 -15 -23 0 -24 3 -24
64 0 42 4 66 13 69 6 3 -6 6 -27 6 -31 1 -37 -2 -28 -11z"/>
<path d="M298 663 c8 -3 12 -27 12 -68 0 -41 -4 -65 -12 -68 -7 -3 5 -5 27 -5
22 0 34 2 28 5 -9 3 -13 27 -13 68 0 41 4 65 13 68 6 3 -6 5 -28 5 -22 0 -34
-2 -27 -5z"/>
<path d="M492 658 c9 -7 27 -39 41 -71 13 -32 27 -59 31 -60 5 -1 17 23 28 53
11 30 27 63 36 73 14 16 13 17 -18 17 -29 0 -31 -2 -18 -12 14 -12 14 -17 -2
-52 l-18 -40 -16 38 c-19 46 -20 53 -3 59 6 3 -8 6 -32 6 -38 1 -42 -1 -29
-11z"/>
<path d="M768 663 c8 -3 12 -27 12 -68 0 -41 -4 -65 -12 -68 -7 -3 5 -5 27 -5
22 0 34 2 28 5 -9 3 -13 27 -13 68 0 41 4 65 13 68 6 3 -6 5 -28 5 -22 0 -34
-2 -27 -5z"/>
<path d="M971 657 c21 -16 20 -114 -1 -127 -11 -7 -4 -9 25 -9 22 1 32 3 23 6
-14 4 -18 15 -18 56 l0 51 58 -57 c32 -31 61 -57 65 -57 4 0 6 29 4 65 -2 36
0 65 4 65 5 0 9 5 9 10 0 6 -12 10 -27 10 -21 0 -24 -3 -15 -12 7 -7 12 -30
12 -52 l0 -41 -50 53 c-37 38 -58 52 -78 52 -23 -1 -25 -2 -11 -13z"/>
<path d="M692 268 c9 -7 27 -40 40 -73 14 -33 28 -60 32 -60 5 0 17 25 28 55
11 30 27 63 36 73 14 16 13 17 -19 17 -24 0 -30 -3 -20 -9 12 -8 13 -16 2 -53
l-14 -43 -20 43 c-19 37 -19 44 -7 52 11 7 2 10 -29 10 -38 0 -42 -2 -29 -12z"/>
<path d="M1069 271 c22 -14 23 -119 2 -131 -12 -7 -3 -9 29 -9 25 0 38 3 30 7
-21 9 -21 119 0 132 11 7 1 10 -30 10 -31 0 -41 -3 -31 -9z"/>
<path d="M24 221 c-2 -2 -4 -10 -4 -18 0 -10 52 -13 269 -13 149 0 272 4 275
8 14 24 -25 27 -272 27 -145 0 -265 -2 -268 -4z"/>
<path d="M922 148 c6 -18 28 -21 28 -4 0 9 -7 16 -16 16 -9 0 -14 -5 -12 -12z"/>
</g>
</svg>
